<svg width="70" height="70" viewBox="0 0 70 70" fill="none" xmlns="http://www.w3.org/2000/svg">
<path d="M56.3281 3.28125H13.6719C7.32923 3.28125 2.1875 8.42298 2.1875 14.7656V55.2344C2.1875 61.577 7.32923 66.7188 13.6719 66.7188H56.3281C62.6708 66.7188 67.8125 61.577 67.8125 55.2344V14.7656C67.8125 8.42298 62.6708 3.28125 56.3281 3.28125Z" fill="#470137"/>
<path d="M35.9215 21.2297L27.8496 35.0984L36.5476 49.864C36.7254 50.1648 36.6488 50.3125 36.3234 50.3125H30.8984C30.7641 50.3267 30.6286 50.3001 30.5096 50.2362C30.3906 50.1723 30.2936 50.0741 30.2312 49.9543L24.109 38.7242H24.0625L18.1016 49.9543C18.0467 50.0611 17.9638 50.151 17.8616 50.2141C17.7594 50.2773 17.642 50.3113 17.5219 50.3125H12.3047C12.0066 50.3125 11.9492 50.1648 12.1269 49.864L20.6801 35.5031L12.5316 21.1394C12.3539 20.9015 12.4141 20.7812 12.7094 20.7812H18.1453C18.2619 20.7729 18.3784 20.7981 18.4811 20.8538C18.5838 20.9095 18.6684 20.9934 18.725 21.0957L24.4672 32.1918H24.5109L30.223 21.0957C30.2794 20.9939 30.3636 20.9102 30.4658 20.8545C30.568 20.7989 30.6839 20.7734 30.8 20.7812H35.7437C36.0719 20.7812 36.1293 20.9316 35.9215 21.2297ZM49.1832 50.8594C46.0113 50.8594 43.5695 49.9597 41.6746 48.1633C39.7797 46.3668 38.8281 43.7117 38.8281 40.1953C38.8281 36.9997 39.8471 34.3747 41.8851 32.3203C42.928 31.2409 44.1818 30.3878 45.5686 29.8139C46.9554 29.2399 48.4455 28.9576 49.9461 28.9844C50.6177 28.9724 51.2882 29.044 51.9422 29.1976V19.9445C51.9372 19.9099 51.9404 19.8745 51.9514 19.8413C51.9624 19.808 51.9809 19.7778 52.0055 19.7529C52.0301 19.728 52.0602 19.7091 52.0933 19.6978C52.1264 19.6864 52.1618 19.6829 52.1965 19.6875H57.1949C57.3344 19.6875 57.4054 19.7723 57.4054 19.9445V45.8527C57.4054 46.9465 57.8785 47.8789 57.9523 48.6773C57.9674 48.7564 57.9543 48.8382 57.9154 48.9087C57.8764 48.9791 57.814 49.0336 57.739 49.0629C55.2863 50.2605 52.0707 50.8594 49.1832 50.8594ZM51.9531 46.6238V33.3976C51.7754 33.0859 50.8347 32.8125 49.8722 32.8125C49.0756 32.7918 48.2844 32.9493 47.5564 33.2733C46.8284 33.5974 46.1819 34.0798 45.664 34.6855C44.4029 36.1626 43.7225 38.0482 43.75 39.9902C43.75 42.3855 44.5703 44.0262 45.6394 45.1664C46.1448 45.7459 46.7672 46.2117 47.4657 46.5332C48.1642 46.8546 48.9229 47.0244 49.6918 47.0312C50.7117 47.0312 51.7097 46.8781 51.9531 46.6238Z" fill="#FF61F6"/>
</svg>
