<svg width="198" height="52" viewBox="0 0 198 52" fill="none" xmlns="http://www.w3.org/2000/svg">
<g clip-path="url(#clip0_272_366)">
<path d="M51.8064 39.2642V0.0562134H57.823V15.5137C59.7172 12.6562 62.5582 11.227 66.3463 11.2263C69.5774 11.2263 72.0748 12.1948 73.839 14.1316C75.6031 16.0685 76.4852 18.767 76.4852 22.2269V39.2642H70.4688V23.0735C70.4688 18.5985 68.5006 16.3607 64.5639 16.3603C62.5948 16.3603 60.9792 16.9621 59.717 18.1656C58.4548 19.3692 57.8234 21.0616 57.823 23.2427V39.2646L51.8064 39.2642Z" fill="#323232"/>
<path d="M104.912 35.8793C102.239 38.5871 98.8775 39.9411 94.8294 39.9411C90.7813 39.9411 87.4107 38.5871 84.7181 35.8793C82.0251 33.1716 80.6785 29.7303 80.6785 25.5553C80.6785 21.3804 82.0247 17.9485 84.7172 15.2598C87.4098 12.5715 90.7802 11.227 94.8285 11.2263C98.8769 11.2255 102.238 12.57 104.912 15.2598C107.586 17.9493 108.923 21.3811 108.923 25.5553C108.923 29.7295 107.586 33.1709 104.912 35.8793ZM89.1192 32.4385C90.5485 34.1312 92.4519 34.9773 94.8294 34.977C97.2069 34.977 99.1103 34.1307 100.539 32.4385C101.968 30.7461 102.683 28.4519 102.684 25.556C102.684 22.6982 101.96 20.423 100.512 18.7301C99.0633 17.0372 97.1693 16.1909 94.8294 16.1912C92.4523 16.1912 90.5489 17.028 89.1192 18.7017C87.6896 20.3753 86.9747 22.6601 86.9744 25.556C86.9744 28.4524 87.6894 30.7465 89.1192 32.4385Z" fill="#323232"/>
<path d="M122.851 39.941C117.317 39.941 114.55 36.9323 114.55 30.9146V17.0358H110.372V11.9016H114.717L116.11 3.83453H120.622V11.9016H131.374V17.0358H120.622V30.7445C120.622 33.2645 121.532 34.5244 123.352 34.5244C125.059 34.5244 126.601 32.9448 127.975 29.7854L132.655 32.2115C130.352 37.3651 127.084 39.9415 122.851 39.941Z" fill="#323232"/>
<path d="M134.588 51.788C131.914 51.788 129.704 51.0358 127.958 49.5313L130.187 44.7363C131.264 46.0143 132.434 46.6535 133.697 46.6535C135.368 46.6535 136.203 45.5628 136.203 43.3817V11.9032H142.22V43.4951C142.22 46.4289 141.505 48.5442 140.075 49.8411C138.645 51.1382 136.816 51.7871 134.588 51.788ZM139.212 7.27689C138.222 7.31089 137.261 6.94565 136.538 6.26152C136.19 5.92956 135.916 5.52658 135.733 5.07923C135.551 4.6319 135.464 4.15039 135.479 3.66666C135.466 3.17894 135.553 2.69375 135.736 2.24206C135.918 1.79038 136.191 1.38212 136.538 1.04336C137.265 0.371935 138.214 -0.000244141 139.198 -0.000244141C140.182 -0.000244141 141.13 0.371935 141.858 1.04336C142.212 1.37789 142.492 1.78471 142.679 2.23692C142.866 2.68915 142.957 3.17645 142.944 3.66666C142.953 4.14799 142.861 4.62571 142.673 5.06819C142.486 5.51068 142.208 5.90781 141.858 6.23332C141.506 6.57511 141.092 6.84324 140.638 7.02238C140.184 7.20149 139.699 7.28806 139.212 7.27713L139.212 7.27689Z" fill="#323232"/>
<path d="M157.161 39.9411C154.078 39.9411 151.58 39.1606 149.668 37.5997C147.756 36.0388 146.8 33.9423 146.799 31.3097C146.799 28.9032 147.793 26.8628 149.78 25.1887C151.767 23.5146 154.265 22.6777 157.273 22.6781C160.355 22.6781 162.955 23.675 165.072 25.6684V22.3397C165.072 20.3847 164.58 18.871 163.596 17.7985C162.611 16.726 161.209 16.1898 159.39 16.1899C155.713 16.1899 153.429 18.0892 152.537 21.8878L147.022 20.7029C147.765 17.7696 149.232 15.4567 151.423 13.7643C153.615 12.0718 156.345 11.2256 159.613 11.2256C163.178 11.2256 165.991 12.1752 168.052 14.0745C170.113 15.9738 171.144 18.7475 171.144 22.3955V39.2635H165.295V35.8227C163.325 38.5686 160.614 39.9415 157.161 39.9411ZM158.275 35.4278C160.949 35.4278 163.214 34.0739 165.071 31.3661V30.5198C163.214 28.2631 160.949 27.1349 158.275 27.1352C156.715 27.1352 155.452 27.5208 154.487 28.2917C154.03 28.6326 153.66 29.0794 153.408 29.5946C153.156 30.1097 153.029 30.6784 153.038 31.2531C153.023 31.8341 153.144 32.4103 153.391 32.9349C153.638 33.4596 154.004 33.9176 154.459 34.2719C155.406 35.0431 156.678 35.4283 158.275 35.4278Z" fill="#323232"/>
<path d="M176.998 39.2642V11.9032H182.848V16.6408C184.333 13.1812 186.895 11.4512 190.536 11.4508C192.689 11.4508 194.471 12.1654 195.883 13.5946C197.296 15.0238 198.001 16.9418 198 19.3487C197.985 20.7892 197.741 22.2179 197.276 23.5793L191.761 23.0155C191.874 22.2679 191.949 21.5147 191.984 20.7591C191.984 17.9386 190.832 16.5284 188.53 16.5284C186.97 16.5284 185.661 17.3652 184.602 19.0388C183.544 20.7125 183.015 22.9221 183.014 25.6677V39.2635L176.998 39.2642Z" fill="#323232"/>
<path d="M14.2346 16.0897C18.7171 13.5673 24.8584 10.1129 24.8584 0.0562134H17.4237C17.4237 5.68268 14.7188 7.20443 10.6245 9.50798C6.14207 12.0301 0.000850677 15.4846 0.000850677 25.5413H7.4361C7.4361 19.9148 10.1404 18.3933 14.2346 16.0897Z" fill="#FF3C00"/>
<path d="M27.1023 13.7791C27.1023 19.4055 24.3975 20.9271 20.3031 23.2306C15.8206 25.753 9.67944 29.2075 9.67944 39.2642H17.1147C17.1147 33.6376 19.8196 32.116 23.9141 29.8123C28.3965 27.2901 34.5375 23.8356 34.5375 13.7791H27.1023Z" fill="#FF3C00"/>
</g>
<defs>
<clipPath id="clip0_272_366">
<rect width="198" height="52" fill="white"/>
</clipPath>
</defs>
</svg>
