<svg width="35" height="35" viewBox="0 0 35 35" fill="none" xmlns="http://www.w3.org/2000/svg">
<path d="M31.5968 8.11553H22.7315V10.571H31.6318L31.5968 8.11553ZM29.7258 25.008C29.0533 25.4518 28.2591 25.6769 27.4527 25.6523C26.9189 25.7077 26.3793 25.6528 25.8678 25.491C25.3564 25.3292 24.8839 25.064 24.4801 24.7119C23.7335 23.8688 23.3448 22.7699 23.396 21.6469H34.9715C35.055 20.4776 34.9547 19.3024 34.6743 18.1639C34.403 17.0808 33.9284 16.0585 33.2754 15.1511C32.6182 14.271 31.7693 13.5506 30.7924 13.0439C29.7056 12.5102 28.5069 12.2416 27.2953 12.2603C26.1558 12.252 25.0261 12.4711 23.973 12.9046C23.0087 13.3095 22.1349 13.9015 21.4026 14.6461C20.6724 15.4056 20.1069 16.3066 19.7414 17.2932C19.3492 18.3582 19.1537 19.4851 19.1644 20.6194C19.1464 21.7698 19.3359 22.9142 19.7239 23.9979C20.0535 24.9793 20.5767 25.8852 21.2627 26.6624C21.9724 27.4254 22.8448 28.0205 23.8156 28.4039C24.8982 28.8146 26.0496 29.0156 27.2079 28.996C28.833 29.0464 30.4375 28.6227 31.8241 27.7769C33.2246 26.7858 34.2328 25.338 34.6743 23.6844H30.8099C30.603 24.2315 30.2224 24.6962 29.7258 25.008ZM23.7282 17.833C23.8643 17.3988 24.0902 16.9979 24.3913 16.6559C24.6925 16.314 25.0623 16.0387 25.4768 15.8477C26.0257 15.6016 26.6236 15.4826 27.2253 15.4994C27.6601 15.4625 28.0977 15.5196 28.5082 15.6669C28.9186 15.8142 29.2923 16.0481 29.6034 16.3528C30.1975 17.0771 30.5788 17.9511 30.705 18.8779H23.4484C23.4767 18.524 23.5412 18.1739 23.6408 17.833H23.7282ZM14.4782 16.9971C15.3682 16.628 16.1415 16.0263 16.7164 15.2556C17.2449 14.4371 17.5074 13.4764 17.4683 12.5041C17.5026 11.6174 17.3289 10.7349 16.9612 9.92668C16.6522 9.22646 16.1563 8.62409 15.5274 8.18519C14.8605 7.72888 14.1033 7.42009 13.3067 7.27962C12.3639 7.08268 11.4022 6.98924 10.439 7.00098H0V28.9089H10.6663C11.6397 28.9096 12.6093 28.7867 13.5515 28.5432C14.4445 28.3131 15.2906 27.9301 16.0519 27.4112C16.7894 26.9022 17.3899 26.2204 17.8005 25.4259C18.255 24.5374 18.4775 23.5492 18.4475 22.5525C18.4806 21.3173 18.1327 20.1017 17.4508 19.0695C16.7174 18.0314 15.6297 17.2948 14.3908 16.9971H14.4782ZM4.84356 10.7452H9.37237C9.78844 10.7447 10.2038 10.7796 10.6139 10.8497C10.9915 10.9054 11.3541 11.0357 11.6805 11.2328C11.9958 11.4105 12.2514 11.6771 12.4149 11.9991C12.6174 12.3852 12.7139 12.8177 12.6947 13.2529C12.7272 13.6278 12.6697 14.0049 12.5268 14.3532C12.3839 14.7015 12.1597 15.0108 11.8728 15.2556C11.2471 15.6841 10.4982 15.898 9.73957 15.8652H4.84356V10.7452ZM13.3067 23.7018C13.127 24.0568 12.8554 24.3574 12.5198 24.5726C12.1706 24.7889 11.7859 24.9422 11.3832 25.0254C10.9357 25.1251 10.4779 25.1719 10.0193 25.1647H4.77361V19.1566H10.0193C10.9195 19.1173 11.8085 19.3677 12.5548 19.8706C12.8919 20.1719 13.1531 20.5481 13.3171 20.9686C13.4812 21.3892 13.5435 21.8423 13.499 22.2912C13.5463 22.7699 13.4804 23.253 13.3067 23.7018Z" fill="#2158CB"/>
</svg>
