<svg width="35" height="35" viewBox="0 0 35 35" fill="none" xmlns="http://www.w3.org/2000/svg">
<path d="M27.1667 6.77C27.1667 6.67333 27.1667 6.67333 27.1667 6.77C24.5567 4.35333 21.1733 3 17.5 3C15.8567 3 14.31 3.29 12.7633 3.77333C12.57 3.77333 12.3767 3.87 12.1833 3.96667C6.86667 6.09333 3 11.41 3 17.5C3 21.4633 4.54667 24.9433 7.06 27.5533L7.15667 27.65C9.76667 30.3567 13.44 32 17.5 32C25.5233 32 32 25.5233 32 17.5C32 13.2467 30.1633 9.38 27.1667 6.77ZM17.5 5.9C20.11 5.9 22.43 6.77 24.3633 8.22C23.7833 9.18667 22.2367 10.9267 19.1433 12.0867C18.1767 10.0567 16.92 8.02667 15.47 6.09333C16.1467 5.99667 16.8233 5.9 17.5 5.9ZM12.57 7.06C14.1167 8.99333 15.2767 11.0233 16.34 13.0533C13.8267 13.6333 10.7333 13.8267 6.67333 13.6333C7.73667 10.6367 9.86333 8.31667 12.57 7.06ZM5.9 17.5C5.9 17.1133 5.9 16.7267 5.99667 16.34C7.35 16.5333 8.60667 16.5333 9.76667 16.5333C12.86 16.5333 15.3733 16.2433 17.5 15.6633C17.6933 16.05 17.79 16.4367 17.9833 16.8233C12.86 18.5633 9.67 22.0433 8.02667 24.17C6.77 22.3333 5.9 20.0133 5.9 17.5ZM17.5 29.1C14.6967 29.1 12.1833 28.1333 10.1533 26.49C11.3133 24.8467 14.1167 21.3667 18.95 19.7233C20.2067 23.9767 20.5933 27.36 20.69 28.6167C19.7233 28.9067 18.66 29.1 17.5 29.1ZM20.4 14.7933C23.6867 13.44 25.62 11.7 26.5867 10.25C27.94 11.8933 28.81 14.02 29.1 16.2433C26.1033 15.6633 23.3967 15.6633 20.98 16.1467C20.69 15.76 20.5933 15.2767 20.4 14.7933ZM23.59 27.36C23.3967 25.62 22.9133 22.5267 21.85 18.95C23.88 18.66 26.2967 18.66 28.9067 19.24C28.4233 22.6233 26.3933 25.62 23.59 27.36Z" fill="#2158CB"/>
</svg>
