<svg width="35" height="33" viewBox="0 0 35 33" fill="none" xmlns="http://www.w3.org/2000/svg">
<path d="M3 6.13636C3 5.22725 3.32659 4.47725 3.97973 3.88636C4.63287 3.29545 5.48199 3 6.52703 3C7.55342 3 8.38384 3.29089 9.01834 3.87273C9.67148 4.47273 9.99807 5.25453 9.99807 6.21818C9.99807 7.09091 9.68083 7.81816 9.04633 8.4C8.39319 9 7.53475 9.3 6.47104 9.3H6.44305C5.41666 9.3 4.58624 9 3.95174 8.4C3.31724 7.8 3 7.04545 3 6.13636ZM3.3639 30V11.7818H9.57819V30H3.3639ZM13.0212 30H19.2355V19.8273C19.2355 19.1909 19.3102 18.7 19.4595 18.3545C19.7207 17.7364 20.1173 17.2136 20.6491 16.7864C21.181 16.3591 21.8481 16.1455 22.6506 16.1455C24.7407 16.1455 25.7857 17.5182 25.7857 20.2636V30H32V19.5545C32 16.8636 31.3469 14.8227 30.0405 13.4318C28.7342 12.0409 27.0081 11.3455 24.862 11.3455C22.4546 11.3455 20.5792 12.3545 19.2355 14.3727V14.4273H19.2075L19.2355 14.3727V11.7818H13.0212C13.0585 12.3636 13.0772 14.1727 13.0772 17.2091C13.0772 20.2454 13.0585 24.5091 13.0212 30Z" fill="#2158CB"/>
</svg>
